<mxfile host="app.diagrams.net" modified="2024-02-06T13:43:25.592Z" agent="Mozilla/5.0 (Windows NT 10.0; Win64; x64) AppleWebKit/537.36 (KHTML, like Gecko) Chrome/121.0.0.0 Safari/537.36" etag="ZmJcaYYMOBiSHWtwkmn8" version="23.1.1" type="github">
  <diagram name="第 1 页" id="kZdEJE2tNBQH5bXmBNb2">
    <mxGraphModel dx="1876" dy="578" grid="1" gridSize="10" guides="1" tooltips="1" connect="1" arrows="1" fold="1" page="1" pageScale="1" pageWidth="827" pageHeight="1169" math="0" shadow="0">
      <root>
        <mxCell id="0" />
        <mxCell id="1" parent="0" />
        <mxCell id="NkZ9zl88vyoDHOg0DG4m-26" value="" style="group;strokeWidth=2;" vertex="1" connectable="0" parent="1">
          <mxGeometry x="60" y="130" width="1500.6" height="1200" as="geometry" />
        </mxCell>
        <mxCell id="NkZ9zl88vyoDHOg0DG4m-172" value="" style="group" vertex="1" connectable="0" parent="NkZ9zl88vyoDHOg0DG4m-26">
          <mxGeometry x="-121.5" y="245" width="1366.95" height="353.45000000000005" as="geometry" />
        </mxCell>
        <mxCell id="NkZ9zl88vyoDHOg0DG4m-2" value="" style="strokeWidth=2;html=1;shape=mxgraph.flowchart.annotation_2;align=left;labelPosition=right;pointerEvents=1;rotation=90;points=[[0,0.5,0,0,0],[0.5,0,0,0,0],[0.5,1,0,0,0],[1,0,0,0,0],[1,0.5,0,0,0],[1,1,0,0,0]];perimeterSpacing=0;flipV=0;flipH=1;direction=west;" vertex="1" parent="NkZ9zl88vyoDHOg0DG4m-172">
          <mxGeometry x="586.25" y="-551.25" width="50" height="1222.5" as="geometry" />
        </mxCell>
        <mxCell id="NkZ9zl88vyoDHOg0DG4m-115" value="" style="group" vertex="1" connectable="0" parent="NkZ9zl88vyoDHOg0DG4m-172">
          <mxGeometry x="101.5" y="59" width="548.5" height="146" as="geometry" />
        </mxCell>
        <mxCell id="NkZ9zl88vyoDHOg0DG4m-30" value="" style="strokeWidth=2;html=1;shape=mxgraph.flowchart.annotation_2;align=left;labelPosition=right;pointerEvents=1;direction=south;" vertex="1" parent="NkZ9zl88vyoDHOg0DG4m-115">
          <mxGeometry x="96" y="61" width="395" height="50" as="geometry" />
        </mxCell>
        <mxCell id="NkZ9zl88vyoDHOg0DG4m-108" value="" style="line;strokeWidth=2;direction=south;html=1;perimeter=backbonePerimeter;points=[];outlineConnect=0;" vertex="1" parent="NkZ9zl88vyoDHOg0DG4m-115">
          <mxGeometry x="288.5" width="10" height="26" as="geometry" />
        </mxCell>
        <mxCell id="NkZ9zl88vyoDHOg0DG4m-28" value="&lt;font style=&quot;font-size: 14px;&quot;&gt;人臉辨識&lt;/font&gt;" style="rounded=0;whiteSpace=wrap;html=1;" vertex="1" parent="NkZ9zl88vyoDHOg0DG4m-115">
          <mxGeometry x="248.5" y="26" width="90" height="35" as="geometry" />
        </mxCell>
        <mxCell id="NkZ9zl88vyoDHOg0DG4m-29" value="&lt;div style=&quot;font-size: 14px;&quot;&gt;&lt;font style=&quot;font-size: 14px;&quot;&gt;&amp;nbsp;連接攝影機與串流處裡&lt;/font&gt;&lt;/div&gt;" style="rounded=0;whiteSpace=wrap;html=1;align=center;" vertex="1" parent="NkZ9zl88vyoDHOg0DG4m-115">
          <mxGeometry x="10" y="111" width="150" height="35" as="geometry" />
        </mxCell>
        <mxCell id="NkZ9zl88vyoDHOg0DG4m-111" value="" style="group" vertex="1" connectable="0" parent="NkZ9zl88vyoDHOg0DG4m-115">
          <mxGeometry x="176" y="85" width="110" height="61" as="geometry" />
        </mxCell>
        <mxCell id="NkZ9zl88vyoDHOg0DG4m-109" value="" style="line;strokeWidth=2;direction=south;html=1;perimeter=backbonePerimeter;points=[];outlineConnect=0;container=0;" vertex="1" parent="NkZ9zl88vyoDHOg0DG4m-111">
          <mxGeometry x="50" width="10" height="26" as="geometry" />
        </mxCell>
        <mxCell id="NkZ9zl88vyoDHOg0DG4m-34" value="&lt;div&gt;&lt;font style=&quot;font-size: 14px;&quot;&gt;&amp;nbsp;人臉檢測與定位&lt;/font&gt;&lt;/div&gt;" style="rounded=0;whiteSpace=wrap;html=1;align=center;container=0;" vertex="1" parent="NkZ9zl88vyoDHOg0DG4m-111">
          <mxGeometry y="26" width="110" height="35" as="geometry" />
        </mxCell>
        <mxCell id="NkZ9zl88vyoDHOg0DG4m-113" value="" style="group" vertex="1" connectable="0" parent="NkZ9zl88vyoDHOg0DG4m-115">
          <mxGeometry x="306" y="85" width="91.18" height="61" as="geometry" />
        </mxCell>
        <mxCell id="NkZ9zl88vyoDHOg0DG4m-40" value="&lt;div style=&quot;font-size: 14px;&quot;&gt;&lt;font style=&quot;font-size: 14px;&quot;&gt;人臉特徵提取&lt;/font&gt;&lt;/div&gt;" style="rounded=0;whiteSpace=wrap;html=1;" vertex="1" parent="NkZ9zl88vyoDHOg0DG4m-113">
          <mxGeometry y="26" width="91.18" height="35" as="geometry" />
        </mxCell>
        <mxCell id="NkZ9zl88vyoDHOg0DG4m-112" value="" style="line;strokeWidth=2;direction=south;html=1;perimeter=backbonePerimeter;points=[];outlineConnect=0;container=0;" vertex="1" parent="NkZ9zl88vyoDHOg0DG4m-113">
          <mxGeometry x="40.589999999999975" width="10" height="26" as="geometry" />
        </mxCell>
        <mxCell id="NkZ9zl88vyoDHOg0DG4m-46" value="&lt;div style=&quot;font-size: 14px;&quot;&gt;&lt;font style=&quot;font-size: 14px;&quot;&gt;人臉資料庫比對辨識&lt;/font&gt;&lt;/div&gt;" style="rounded=0;whiteSpace=wrap;html=1;" vertex="1" parent="NkZ9zl88vyoDHOg0DG4m-115">
          <mxGeometry x="416" y="111" width="132.5" height="35" as="geometry" />
        </mxCell>
        <mxCell id="NkZ9zl88vyoDHOg0DG4m-119" value="" style="group;rotation=90;" vertex="1" connectable="0" parent="NkZ9zl88vyoDHOg0DG4m-172">
          <mxGeometry x="931.5" y="-82" width="293.4" height="577.5" as="geometry" />
        </mxCell>
        <mxCell id="NkZ9zl88vyoDHOg0DG4m-164" value="" style="group" vertex="1" connectable="0" parent="NkZ9zl88vyoDHOg0DG4m-119">
          <mxGeometry x="-250" y="141" width="371" height="146" as="geometry" />
        </mxCell>
        <mxCell id="NkZ9zl88vyoDHOg0DG4m-117" value="" style="line;strokeWidth=2;direction=south;html=1;perimeter=backbonePerimeter;points=[];outlineConnect=0;container=0;" vertex="1" parent="NkZ9zl88vyoDHOg0DG4m-164">
          <mxGeometry x="180.49999999999997" width="10" height="25.999999999999996" as="geometry" />
        </mxCell>
        <mxCell id="NkZ9zl88vyoDHOg0DG4m-118" value="&lt;font style=&quot;font-size: 14px;&quot;&gt;行為辨識&lt;/font&gt;" style="rounded=0;whiteSpace=wrap;html=1;container=0;" vertex="1" parent="NkZ9zl88vyoDHOg0DG4m-164">
          <mxGeometry x="140.49999999999997" y="26" width="90" height="35" as="geometry" />
        </mxCell>
        <mxCell id="NkZ9zl88vyoDHOg0DG4m-153" value="" style="strokeWidth=2;html=1;shape=mxgraph.flowchart.annotation_2;align=left;labelPosition=right;pointerEvents=1;direction=south;container=0;" vertex="1" parent="NkZ9zl88vyoDHOg0DG4m-164">
          <mxGeometry x="43" y="61" width="287" height="50" as="geometry" />
        </mxCell>
        <mxCell id="NkZ9zl88vyoDHOg0DG4m-154" value="&lt;div style=&quot;font-size: 14px;&quot;&gt;&lt;font style=&quot;font-size: 14px;&quot;&gt;特徵提取&lt;/font&gt;&lt;/div&gt;" style="rounded=0;whiteSpace=wrap;html=1;align=center;container=0;" vertex="1" parent="NkZ9zl88vyoDHOg0DG4m-164">
          <mxGeometry x="1" y="111" width="70" height="35" as="geometry" />
        </mxCell>
        <mxCell id="NkZ9zl88vyoDHOg0DG4m-161" value="&lt;div style=&quot;font-size: 14px;&quot;&gt;&lt;font style=&quot;font-size: 14px;&quot;&gt;數據儲存&lt;/font&gt;&lt;/div&gt;" style="rounded=0;whiteSpace=wrap;html=1;container=0;" vertex="1" parent="NkZ9zl88vyoDHOg0DG4m-164">
          <mxGeometry x="294" y="111" width="75" height="35" as="geometry" />
        </mxCell>
        <mxCell id="NkZ9zl88vyoDHOg0DG4m-156" value="" style="line;strokeWidth=2;direction=south;html=1;perimeter=backbonePerimeter;points=[];outlineConnect=0;container=0;" vertex="1" parent="NkZ9zl88vyoDHOg0DG4m-164">
          <mxGeometry x="122.49999999999999" y="85" width="10" height="25.999999999999996" as="geometry" />
        </mxCell>
        <mxCell id="NkZ9zl88vyoDHOg0DG4m-157" value="&lt;div&gt;&lt;font style=&quot;font-size: 14px;&quot;&gt;動作識別&lt;/font&gt;&lt;/div&gt;" style="rounded=0;whiteSpace=wrap;html=1;align=center;container=0;" vertex="1" parent="NkZ9zl88vyoDHOg0DG4m-164">
          <mxGeometry x="90" y="111" width="75" height="35" as="geometry" />
        </mxCell>
        <mxCell id="NkZ9zl88vyoDHOg0DG4m-159" value="&lt;div style=&quot;font-size: 14px;&quot;&gt;&lt;font style=&quot;font-size: 14px;&quot;&gt;決策與反饋&lt;/font&gt;&lt;/div&gt;" style="rounded=0;whiteSpace=wrap;html=1;container=0;" vertex="1" parent="NkZ9zl88vyoDHOg0DG4m-164">
          <mxGeometry x="190" y="111" width="85" height="35" as="geometry" />
        </mxCell>
        <mxCell id="NkZ9zl88vyoDHOg0DG4m-160" value="" style="line;strokeWidth=2;direction=south;html=1;perimeter=backbonePerimeter;points=[];outlineConnect=0;container=0;" vertex="1" parent="NkZ9zl88vyoDHOg0DG4m-164">
          <mxGeometry x="230.58999999999997" y="85" width="10" height="25.999999999999996" as="geometry" />
        </mxCell>
        <mxCell id="NkZ9zl88vyoDHOg0DG4m-173" value="&lt;font style=&quot;font-size: 14px;&quot;&gt;基於AWS雲端系統的人臉與行為辨識系統之研究&lt;/font&gt;" style="rounded=0;whiteSpace=wrap;html=1;" vertex="1" parent="NkZ9zl88vyoDHOg0DG4m-172">
          <mxGeometry x="445.25" width="332" height="35" as="geometry" />
        </mxCell>
        <mxCell id="NkZ9zl88vyoDHOg0DG4m-31" value="" style="endArrow=none;html=1;rounded=0;entryX=0.991;entryY=0.296;entryDx=0;entryDy=0;entryPerimeter=0;strokeWidth=2;" edge="1" parent="1">
          <mxGeometry relative="1" as="geometry">
            <mxPoint x="-410" y="1347.5" as="sourcePoint" />
            <mxPoint x="-386" y="1347.5" as="targetPoint" />
          </mxGeometry>
        </mxCell>
        <mxCell id="NkZ9zl88vyoDHOg0DG4m-114" value="" style="group" vertex="1" connectable="0" parent="1">
          <mxGeometry x="-180" y="460" width="210" height="120" as="geometry" />
        </mxCell>
        <mxCell id="NkZ9zl88vyoDHOg0DG4m-167" value="" style="group" vertex="1" connectable="0" parent="NkZ9zl88vyoDHOg0DG4m-114">
          <mxGeometry x="30" width="170" height="120" as="geometry" />
        </mxCell>
        <mxCell id="NkZ9zl88vyoDHOg0DG4m-51" value="&lt;font style=&quot;font-size: 14px;&quot;&gt;&amp;nbsp;登入與管理介面&lt;/font&gt;" style="rounded=0;whiteSpace=wrap;html=1;" vertex="1" parent="NkZ9zl88vyoDHOg0DG4m-167">
          <mxGeometry x="25" width="120" height="35" as="geometry" />
        </mxCell>
        <mxCell id="NkZ9zl88vyoDHOg0DG4m-52" value="" style="strokeWidth=2;html=1;shape=mxgraph.flowchart.annotation_2;align=left;labelPosition=right;pointerEvents=1;direction=south;" vertex="1" parent="NkZ9zl88vyoDHOg0DG4m-167">
          <mxGeometry x="39" y="35" width="96" height="50" as="geometry" />
        </mxCell>
        <mxCell id="NkZ9zl88vyoDHOg0DG4m-53" value="&lt;font style=&quot;font-size: 14px;&quot;&gt;&amp;nbsp;登入介面&lt;/font&gt;" style="rounded=0;whiteSpace=wrap;html=1;" vertex="1" parent="NkZ9zl88vyoDHOg0DG4m-167">
          <mxGeometry y="85" width="70" height="35" as="geometry" />
        </mxCell>
        <mxCell id="NkZ9zl88vyoDHOg0DG4m-69" value="&lt;font style=&quot;font-size: 14px;&quot;&gt;&amp;nbsp;管理介面&lt;/font&gt;" style="rounded=0;whiteSpace=wrap;html=1;align=center;" vertex="1" parent="NkZ9zl88vyoDHOg0DG4m-167">
          <mxGeometry x="100" y="85" width="70" height="35" as="geometry" />
        </mxCell>
        <mxCell id="NkZ9zl88vyoDHOg0DG4m-165" value="" style="group" vertex="1" connectable="0" parent="1">
          <mxGeometry x="1010" y="460" width="370" height="140" as="geometry" />
        </mxCell>
        <mxCell id="NkZ9zl88vyoDHOg0DG4m-141" value="" style="strokeWidth=2;html=1;shape=mxgraph.flowchart.annotation_2;align=left;labelPosition=right;pointerEvents=1;direction=south;" vertex="1" parent="NkZ9zl88vyoDHOg0DG4m-165">
          <mxGeometry x="57.400000000000006" y="35" width="190.91" height="50" as="geometry" />
        </mxCell>
        <mxCell id="NkZ9zl88vyoDHOg0DG4m-144" value="&lt;div style=&quot;font-size: 14px;&quot;&gt;創建表格&lt;/div&gt;" style="rounded=0;whiteSpace=wrap;html=1;align=center;" vertex="1" parent="NkZ9zl88vyoDHOg0DG4m-165">
          <mxGeometry x="18.31" y="85" width="70" height="35" as="geometry" />
        </mxCell>
        <mxCell id="NkZ9zl88vyoDHOg0DG4m-145" value="" style="group" vertex="1" connectable="0" parent="NkZ9zl88vyoDHOg0DG4m-165">
          <mxGeometry x="115.06092850510677" y="59" width="75.5803156917363" height="61" as="geometry" />
        </mxCell>
        <mxCell id="NkZ9zl88vyoDHOg0DG4m-146" value="" style="line;strokeWidth=2;direction=south;html=1;perimeter=backbonePerimeter;points=[];outlineConnect=0;container=0;" vertex="1" parent="NkZ9zl88vyoDHOg0DG4m-145">
          <mxGeometry x="34.354688950789225" width="6.870937790157845" height="26" as="geometry" />
        </mxCell>
        <mxCell id="NkZ9zl88vyoDHOg0DG4m-149" value="&lt;div style=&quot;font-size: 14px;&quot;&gt;&lt;font style=&quot;font-size: 14px;&quot;&gt;查詢資料&lt;/font&gt;&lt;/div&gt;" style="rounded=0;whiteSpace=wrap;html=1;" vertex="1" parent="NkZ9zl88vyoDHOg0DG4m-165">
          <mxGeometry x="215.31" y="85" width="70" height="35" as="geometry" />
        </mxCell>
        <mxCell id="NkZ9zl88vyoDHOg0DG4m-147" value="&lt;div&gt;&lt;font style=&quot;font-size: 14px;&quot;&gt;儲存影片&lt;/font&gt;&lt;/div&gt;" style="rounded=0;whiteSpace=wrap;html=1;align=center;container=0;" vertex="1" parent="NkZ9zl88vyoDHOg0DG4m-165">
          <mxGeometry x="115.06092850510677" y="85" width="75.5803156917363" height="35" as="geometry" />
        </mxCell>
        <mxCell id="NkZ9zl88vyoDHOg0DG4m-143" value="&lt;font style=&quot;font-size: 14px;&quot;&gt;資料庫管理&lt;/font&gt;" style="rounded=0;whiteSpace=wrap;html=1;" vertex="1" parent="NkZ9zl88vyoDHOg0DG4m-165">
          <mxGeometry x="103.62" width="96.38" height="35" as="geometry" />
        </mxCell>
      </root>
    </mxGraphModel>
  </diagram>
</mxfile>
